<svg width="27" height="27" viewBox="0 0 27 27" fill="none" xmlns="http://www.w3.org/2000/svg">
<path d="M3.0013 0.664062C1.71214 0.664062 0.667969 1.70823 0.667969 2.9974V23.9974C0.667969 25.2866 1.71214 26.3307 3.0013 26.3307H24.0013C25.2905 26.3307 26.3346 25.2866 26.3346 23.9974V2.9974C26.3346 1.70823 25.2905 0.664062 24.0013 0.664062H3.0013ZM16.418 8.83073H19.4007C19.7227 8.83073 19.984 9.09206 19.984 9.41406C19.984 9.73606 19.7227 9.9974 19.4007 9.9974H16.418C16.096 9.9974 15.8346 9.73606 15.8346 9.41406C15.8346 9.09206 16.096 8.83073 16.418 8.83073ZM6.40788 9.27962H9.65723C11.5752 9.27962 12.7197 10.2179 12.7197 11.7451C12.7197 12.7928 11.9448 13.7069 10.931 13.8574V13.9805C12.24 14.0761 13.1914 15.0626 13.1914 16.3366C13.1926 18.0691 11.8839 19.1667 9.77344 19.1667H6.40788C5.81521 19.1667 5.33464 18.6861 5.33464 18.0934V10.3529C5.33464 9.7602 5.81521 9.27962 6.40788 9.27962ZM7.40365 10.861V13.3766H8.95768C10.0753 13.3778 10.6849 12.9179 10.6849 12.1234C10.6849 11.3359 10.1179 10.861 9.13086 10.861H7.40365ZM18.1247 11.4443C20.3518 11.4443 21.6657 12.8636 21.6657 15.2611V15.8695H16.4818V15.972C16.5086 17.0955 17.1672 17.7949 18.209 17.7949C18.9965 17.7949 19.537 17.515 19.7493 17.0156H21.6064C21.3054 18.4413 20.0024 19.3307 18.152 19.3307C15.8502 19.3307 14.4948 17.8775 14.4948 15.4251C14.4948 12.9658 15.8777 11.4443 18.1247 11.4443ZM18.1338 12.9733C17.2086 12.9733 16.5563 13.6157 16.4886 14.5957H19.7083C19.6663 13.5959 19.0648 12.9733 18.1338 12.9733ZM7.40365 14.7757V17.5853H9.24707C10.4394 17.5853 11.0837 17.0829 11.0837 16.1589C11.0837 15.2535 10.4184 14.7757 9.19922 14.7757H7.40365Z" fill="#383838"/>
</svg>
