<svg width="29" height="29" viewBox="0 0 29 29" fill="none" xmlns="http://www.w3.org/2000/svg">
<path d="M14.5 0.5C6.7685 0.5 0.5 6.7685 0.5 14.5C0.5 21.0602 5.01733 26.5493 11.1073 28.0683C11.042 27.8793 11 27.66 11 27.3882V24.9953C10.4318 24.9953 9.47983 24.9953 9.24067 24.9953C8.28283 24.9953 7.43117 24.5835 7.01817 23.8182C6.55967 22.9677 6.48033 21.6668 5.344 20.8712C5.00683 20.6063 5.2635 20.3042 5.652 20.345C6.3695 20.548 6.9645 21.0403 7.5245 21.7707C8.08217 22.5022 8.34467 22.6678 9.3865 22.6678C9.89167 22.6678 10.6477 22.6387 11.3593 22.5267C11.742 21.5548 12.4035 20.66 13.212 20.2377C8.55 19.7582 6.32517 17.4388 6.32517 14.29C6.32517 12.9343 6.90267 11.623 7.88383 10.5182C7.56183 9.4215 7.157 7.185 8.0075 6.33333C10.1052 6.33333 11.3733 7.69367 11.6778 8.06117C12.7232 7.703 13.8712 7.5 15.0775 7.5C16.2862 7.5 17.4388 7.703 18.4865 8.0635C18.7875 7.69833 20.0568 6.33333 22.1592 6.33333C23.0132 7.18617 22.6037 9.432 22.2782 10.5263C23.2535 11.6288 23.8275 12.9367 23.8275 14.29C23.8275 17.4365 21.6062 19.7547 16.9512 20.2365C18.2322 20.905 19.1667 22.7833 19.1667 24.1985V27.3882C19.1667 27.5095 19.1398 27.597 19.1258 27.7008C24.5812 25.7887 28.5 20.6087 28.5 14.5C28.5 6.7685 22.2315 0.5 14.5 0.5Z" fill="#383838"/>
</svg>
